<?xml version="1.0" standalone="no"?>
<!DOCTYPE svg PUBLIC "-//W3C//DTD SVG 20010904//EN"
 "http://www.w3.org/TR/2001/REC-SVG-20010904/DTD/svg10.dtd">
<svg version="1.0" xmlns="http://www.w3.org/2000/svg"
 width="4000.000000pt" height="700.000000pt" viewBox="0 0 4000.000000 700.000000"
 preserveAspectRatio="xMidYMid meet">

<g transform="translate(0.000000,700.000000) scale(0.100000,-0.100000)"
fill="#000000" stroke="none">
<path d="M6975 3883 c-95 -13 -207 -75 -365 -201 -79 -62 -87 -72 -107 -130
-47 -137 -86 -170 -245 -206 -16 -4 -59 -33 -98 -67 -60 -51 -70 -65 -70 -93
0 -81 180 -276 255 -276 13 0 52 27 91 60 51 45 76 76 96 120 42 89 121 140
218 140 66 0 80 -8 135 -80 l46 -60 167 111 c92 62 171 115 176 119 4 5 -33
65 -83 134 -50 69 -91 127 -91 129 0 2 30 19 67 38 64 33 71 34 173 33 102 -1
287 -28 400 -59 73 -20 79 -19 91 8 14 30 -9 89 -43 111 -34 22 -314 113 -453
147 -98 24 -139 29 -225 28 -58 -1 -118 -4 -135 -6z"/>
<path d="M10920 3862 c0 -15 6 -36 13 -47 8 -11 24 -47 37 -80 13 -33 30 -71
37 -85 23 -44 16 -86 -19 -126 -45 -51 -99 -74 -177 -74 -57 0 -66 3 -88 28
-14 15 -42 69 -64 121 -40 96 -62 131 -84 131 -37 0 -65 -98 -65 -230 0 -105
26 -182 82 -246 38 -43 58 -54 195 -103 60 -21 122 -45 139 -54 49 -25 126
-105 194 -202 35 -49 67 -92 70 -95 3 -3 35 -45 70 -95 35 -49 68 -91 72 -93
4 -2 8 -8 8 -14 0 -5 15 -28 34 -50 67 -78 106 -201 106 -334 0 -121 72 -239
187 -305 38 -22 63 -29 90 -27 47 4 51 20 23 84 -12 27 -27 60 -32 74 -6 14
-14 33 -19 42 -15 30 -10 64 14 85 40 37 120 73 162 73 64 0 81 -19 115 -130
32 -103 51 -127 89 -115 29 9 45 87 46 216 0 82 -4 124 -15 145 -37 76 -173
167 -313 210 -46 14 -66 28 -95 63 -20 24 -42 49 -47 55 -72 77 -338 425 -357
469 -7 15 -16 27 -20 27 -3 0 -13 21 -22 47 -12 34 -16 84 -16 184 0 76 -4
148 -9 161 -5 13 -15 43 -22 68 -15 51 -48 100 -98 145 -48 43 -161 105 -193
105 -24 0 -28 -4 -28 -28z"/>
<path d="M7205 3109 c-88 -61 -167 -114 -175 -119 -11 -7 -12 -13 -5 -24 50
-76 766 -1038 788 -1058 50 -48 94 -40 218 38 128 80 149 102 149 154 0 37
-32 82 -405 580 -223 297 -406 540 -407 540 -2 0 -75 -50 -163 -111z"/>
</g>
</svg>
