<?xml version="1.0" standalone="no"?>
<svg viewBox="0 0 200 200" xmlns="http://www.w3.org/2000/svg">
  <path fill="#0F62FE" d="M41.8,-63.3C53.8,-57.3,63,-45.1,69.1,-31.6C75.2,-18,78.3,-3.2,76.9,11.6C75.6,26.3,69.9,41,60.1,51.9C50.4,62.8,36.5,70.1,22.5,72.2C8.4,74.3,-5.8,71.3,-21.1,68.4C-36.3,65.4,-52.5,62.5,-64.4,53.3C-76.3,44.1,-83.9,28.6,-87.1,12C-90.4,-4.7,-89.3,-22.5,-79.9,-33.7C-70.4,-44.9,-52.6,-49.5,-37.9,-54.2C-23.2,-58.9,-11.6,-63.8,1.7,-66.3C14.9,-68.9,29.8,-69.2,41.8,-63.3Z" transform="translate(100 100)" />
</svg>
